<?xml version="1.0" encoding="utf-8"?>
<!-- Generator: Adobe Illustrator 19.0.0, SVG Export Plug-In . SVG Version: 6.00 Build 0)  -->
<svg version="1.1" id="Livello_1" xmlns="http://www.w3.org/2000/svg" xmlns:xlink="http://www.w3.org/1999/xlink" x="0px" y="0px"
	 width="351px" height="365px" viewBox="160 -166 351 365" style="enable-background:new 160 -166 351 365;" xml:space="preserve">
<style type="text/css">
	.st0{fill:url(#SVGID_1_);}
	.st1{fill:#F5811E;}
	.st2{fill:#F26526;}
	.st3{fill:#F15A29;}
</style>
<g id="Layer_1_1_">
</g>
<linearGradient id="SVGID_1_" gradientUnits="userSpaceOnUse" x1="335.5" y1="176.1432" x2="335.5" y2="-110.8822">
	<stop  offset="0" style="stop-color:#FFF200"/>
	<stop  offset="0.7" style="stop-color:#F15A29"/>
</linearGradient>
<path class="st0" d="M199.1-96.8L334.9,45.9l137-141.3l0,265.9l-49.3,0L421.5,32l-85.1,83.1L251.3,32l0,138.5l-52.3,0L199.1-96.8
	 M193.4-110.9v14.1l0,267.3l0,5.6h5.6l52.3,0h5.6v-5.6l0-125.1l75.5,73.7l3.9,3.8l3.9-3.8L416,45.3l1,125.3l0,5.6h5.6l49.3,0h5.6
	v-5.6l0-265.9l0-13.9l-9.7,10L335,37.7L203.2-100.7L193.4-110.9L193.4-110.9z"/>
<path class="st1" d="M365.1-27.9c-8.9-4.9-19.2-7.6-30.1-7.6c-10.8,0-20.9,2.7-29.7,7.4l29.7,31.3L365.1-27.9z"/>
<path class="st2" d="M266.2-69.3l19.5,20.6c14.1-9,31-14.2,49.2-14.2c18.5,0,35.7,5.4,49.9,14.6l19.8-20.4
	c-19.5-13.7-43.6-21.8-69.7-21.8C309.3-90.5,285.5-82.6,266.2-69.3z"/>
<path class="st3" d="M246.7-89.8c24.6-17.7,55.1-28.2,88.3-28.2c33.6,0,64.6,10.8,89.4,29.1l19.6-20.2
	c-29.9-22.8-67.8-36.4-109-36.4c-40.5,0-77.9,13.2-107.6,35.3L246.7-89.8z"/>
</svg>
