<?xml version="1.0" encoding="utf-8"?>
<!-- Generator: Adobe Illustrator 19.0.0, SVG Export Plug-In . SVG Version: 6.00 Build 0)  -->
<svg version="1.1" id="Livello_1" xmlns="http://www.w3.org/2000/svg" xmlns:xlink="http://www.w3.org/1999/xlink" x="0px" y="0px"
	 width="400px" height="81px" viewBox="184 -24 400 81" style="enable-background:new 184 -24 400 81;" xml:space="preserve">
<style type="text/css">
	.st0{fill:url(#SVGID_1_);}
	.st1{fill:#E6E7E8;}
	.st2{fill:url(#SVGID_2_);}
</style>
<linearGradient id="SVGID_1_" gradientUnits="userSpaceOnUse" x1="228.5464" y1="55.6045" x2="228.5464" y2="-22.6288">
	<stop  offset="0" style="stop-color:#FFF200"/>
	<stop  offset="1" style="stop-color:#F15A29"/>
</linearGradient>
<path class="st0" d="M258-9.2c1.3,1.5,2.5,3.1,3.6,4.8l-6.7,7.1c-1.8-1-3.6-1.9-5.5-2.7L258-9.2z M228.3-4.4c0.4,0,0.7,0,1.1,0
	l14.3-15.2c-2-0.8-4-1.5-6.2-2L220.9-3.9C223.3-4.2,225.8-4.4,228.3-4.4z M247.5-0.8l9.2-9.8c-1.4-1.4-2.8-2.7-4.4-3.9l-11,11.8
	C243.4-2.3,245.5-1.6,247.5-0.8z M223.5,13.4l8.4-8.9c-1.2-0.1-2.3-0.1-3.5-0.1c-1.6,0-3.1,0.1-4.6,0.2l-11.5,12.3
	C215.7,15.2,219.5,14,223.5,13.4z M239.1-3.3l11.6-12.4c-1.6-1.1-3.4-2.2-5.2-3L232-4.2C234.4-4.1,236.8-3.8,239.1-3.3z M248.8,9.3
	c-1.8-0.9-3.7-1.8-5.7-2.5l-6.7,7.2c2.1,0.5,4.2,1.2,6.2,2L248.8,9.3z M261.5,7.1l3.8-4.1c-0.7-2-1.6-3.9-2.7-5.7l-6,6.4
	C258.3,4.8,259.9,5.9,261.5,7.1z M234.3,4.7l-7.9,8.4c0.6,0,1.3-0.1,1.9-0.1c2,0,3.9,0.2,5.7,0.5l6.9-7.4
	C238.8,5.5,236.6,5,234.3,4.7z M195.6,6.8c1.7-1.3,3.6-2.6,5.4-3.7L225-22.5c-3.6,0.3-7,1.1-10.2,2.3L191.1,5.2
	c-1,3.3-1.6,6.8-1.7,10.3l7.1-7.6L195.6,6.8z M238,23.6l-6.7,7.1c2.2,0.4,4.2,1.1,6.1,2.1l6-6.5C241.7,25.3,239.9,24.3,238,23.6z
	 M250.5,10.2l-6.2,6.6c1.8,0.9,3.5,1.9,5.1,3.1l6-6.4C253.9,12.3,252.3,11.2,250.5,10.2z M210.1-18c-7.6,4.1-13.7,10.5-17.2,18.4
	L210.1-18z M266,5.1l-46.3,49.5c2.3,0.5,4.7,0.9,7.1,1l40.6-43.4C267.2,9.8,266.7,7.4,266,5.1z M224.3,38.3l-12.6,13.5
	c1.9,0.9,3.9,1.7,5.9,2.3l10.7-11.4L224.3,38.3z M267.7,16.5c0-0.6,0-1.1,0-1.7l-38.2,40.8c3.2-0.1,6.3-0.5,9.3-1.3l28.2-30.1
	C267.4,21.7,267.7,19.1,267.7,16.5z M242.6,53c11.1-4.3,19.8-13.5,23.3-24.9L242.6,53z M217.7-3.3L235.3-22
	c-2.2-0.4-4.4-0.6-6.7-0.6c-0.3,0-0.5,0-0.8,0l-21.5,23C209.9-1.3,213.7-2.5,217.7-3.3z M219.3,32.9c2.7-1.5,5.8-2.3,9-2.3
	c0.2,0,0.4,0,0.5,0l7.1-7.6c-2.2-0.7-4.6-1-7-1.1l-24.1,25.8c1.6,1.2,3.2,2.3,5,3.2l13.1-14L219.3,32.9z M215,25.3l-15.9,17
	c1.3,1.5,2.7,2.8,4.2,4.1l22.9-24.5C222.2,22.2,218.4,23.4,215,25.3z M201.5,13.3l-3.6-4l-8.4,9c0.1,2.6,0.5,5,1.1,7.4l13.1-14
	C202.9,12.3,202.2,12.8,201.5,13.3z M209.3,8.6L191.1,28c0.6,2.1,1.5,4.1,2.4,6l27.1-29C216.7,5.7,212.8,6.9,209.3,8.6z M208.4,20.9
	l-13.9,14.9c1,1.8,2.1,3.4,3.4,5l14.5-15.5L208.4,20.9z"/>
<g>
	<path class="st1" d="M373.6,31c0,4.1-1.5,7.6-4.5,10.4c-3,2.8-6.5,4.1-10.6,4.1c-4,0-7.4-1.4-10.4-4.1c-3.1-2.9-4.7-6.3-4.7-10.4
		c0-4.2,1.5-7.7,4.6-10.6c2.9-2.7,6.4-4.1,10.6-4.1c4.1,0,7.6,1.4,10.6,4.1C372.1,23.2,373.6,26.7,373.6,31z M366.3,31
		c0-2.2-0.8-4-2.3-5.5c-1.5-1.5-3.4-2.2-5.5-2.2c-2.2,0-4,0.7-5.6,2.2c-1.6,1.5-2.3,3.4-2.3,5.6c0,2.1,0.8,3.9,2.5,5.4
		c1.5,1.4,3.3,2.1,5.4,2.1c2.1,0,3.9-0.7,5.5-2.2C365.5,34.9,366.3,33.1,366.3,31z M406.5,29.8c0,4.2-1.2,7.8-3.5,10.8
		c-2.5,3.2-5.8,4.8-9.8,4.8c-5.4,0.3-9.2-1-11.4-4.1l-4.3,3.2L377.5,0l7.4,0v18.4c2.2-2.1,4.8-3.2,7.8-3.2c4,0,7.2,1.4,9.8,4.2
		C405.2,22.2,406.5,25.7,406.5,29.8z M399.1,30.1c0-2.3-0.7-4.2-2-5.8c-1.4-1.6-3.2-2.3-5.4-2.3c-2.1,0-3.8,0.8-5.1,2.4
		c-1.3,1.6-1.9,3.6-1.9,5.8c0,2.4,0.6,4.4,1.9,5.9c1.3,1.7,3.1,2.5,5.3,2.5c2.3,0,4.2-0.8,5.5-2.5C398.5,34.6,399.1,32.6,399.1,30.1
		z M419.5,45.5h-7.3V17.2h7.3V45.5z M415.7,11.3c2.2,0,4-1.7,4-3.8c0-2.1-1.8-3.8-4-3.8c-2.2,0-4,1.7-4,3.8
		C411.7,9.6,413.5,11.3,415.7,11.3z M337.9,45.5l-10.6,0L327,15.7l-18.3,17.9l-18.3-17.9v29.8h-11.3v-57.6l29.3,30.7l29.5-30.4
		L337.9,45.5z"/>
</g>
<linearGradient id="SVGID_2_" gradientUnits="userSpaceOnUse" x1="501.7391" y1="45.4752" x2="501.7391" y2="-0.6213">
	<stop  offset="0" style="stop-color:#FBCB0A"/>
	<stop  offset="1" style="stop-color:#F15A29"/>
</linearGradient>
<path class="st2" d="M498.1,45.5h-20.4V1.3l20.4-0.1l0.2,7.9h-12.9v9.1h12v7.6h-12v11.5h12.9L498.1,45.5z M531.2,31.3
	c0,3.9-1.5,7.2-4.4,10c-2.9,2.8-6.3,4.2-10.1,4.2c-4,0-7.4-1.2-10.2-3.6c-1.8-1.8-3.5-3.4-5.1-5l4.8-5c2.9,3.7,6.5,5.8,10.7,6.4
	c2,0,3.6-0.7,4.8-2.1c1.2-1.4,1.8-3.1,1.8-5.1c0-2.4-1.7-4.5-5-6.1c-3.1-1.5-6.2-3-9.3-4.5c-3.3-2.3-5-5.4-5-9.4
	c0-3.5,1.5-6.4,4.4-8.7c2.7-2,5.7-3,9.2-3c5.2,0,9.2,1.6,11.8,4.7l-4.4,5.3c-2.4-1.9-5-2.9-7.6-2.9c-1.4,0-2.7,0.4-3.9,1.2
	c-1.3,0.9-2,2-2,3.5c0,1.8,1,3.2,3.1,4.3c0.2,0.1,1.9,0.8,5.1,2c2,0.8,3.9,1.8,5.7,3.1c2.2,1.6,3.6,3.2,4.3,4.9
	c0.3,0.6,0.6,1.6,0.9,3C531.1,29.4,531.2,30.3,531.2,31.3z M568,45.5h-7.6V25.4h-17.8v20.1H535V1.3l7.6,0v16.8h17.8V1.3l7.6,0V45.5z
	 M472.4,45.5h-8.3L463.9,22l-14.4,14.1L435,22v23.5h-8.9V0.2l23,24.2l23.2-23.9V45.5z M574.8,1.9c1.4,0,2.5,1.1,2.5,2.4
	c0,1.4-1.1,2.4-2.5,2.4c-1.4,0-2.5-1.1-2.5-2.4C572.3,3,573.4,1.9,574.8,1.9L574.8,1.9z M574.8,2.3c-1.1,0-2,0.9-2,2
	c0,1.1,0.9,2,2,2c1.1,0,2-0.9,2-2C576.8,3.2,575.9,2.3,574.8,2.3L574.8,2.3z M574.3,5.7h-0.4V3c0.2,0,0.5-0.1,0.8-0.1
	c0.4,0,0.7,0.1,0.9,0.2c0.2,0.1,0.3,0.3,0.3,0.6c0,0.4-0.2,0.6-0.5,0.7v0c0.2,0,0.4,0.3,0.5,0.7c0.1,0.4,0.1,0.6,0.2,0.7l-0.5,0
	c-0.1-0.1-0.1-0.3-0.2-0.7c-0.1-0.3-0.2-0.5-0.6-0.5h-0.3V5.7z M574.3,4.2h0.3c0.4,0,0.7-0.1,0.7-0.5c0-0.2-0.2-0.5-0.7-0.5
	c-0.1,0-0.2,0-0.3,0V4.2z"/>
</svg>
